<svg xmlns="http://www.w3.org/2000/svg" viewBox="0 0 687.06 346.76">
<defs>
  <style>
    .wave-01{
      fill:#231f20;
    }
  </style>
</defs>
  <!-- <path class="wave-01" d="M.44,208.7Q9,168.37,69.56,76.09T222.47,3.46a226.19,226.19,0,0,1,75.12,30.88Q332.5,56.68,506.11,182.82q53.64,38.64,89.18,46.22,49.73,10.59,59.32-34.41c3.37-15.8-2.06-32.62-16.43-50.5S617.67,112.51,619.69,103c1.69-7.91,7.25-10.85,16.74-8.83q21.33,4.55,38.33,46.56t10.47,72.8q-13.63,64-81.55,104T467.06,342.84q-49.72-10.6-274.17-177.28Q145.84,130.75,115,124.17q-33.09-7-78.4,77.38C28.2,217.89,19.25,225.1,9.76,223.08,1.91,221.4-1.24,216.55.44,208.7Z"/> -->
  <path
    class="wave-01"
    d="M.44,
    28.7Q9,
    168.37,
    69.56,
    76.09T222.47,
    3.46a226.19,
    226.19,
    0,
    0,
    1,
    75.12,
    30.88Q332.5,
    56.68,
    506.11,
    182.82q53.64,
    38.64,
    89.18,
    46.22,
    49.73,
    10.59,
    59.32-34.41c3.37-15.8-2.06-32.62-16.43-50.5S617.67,
    112.51,
    619.69,
    103c1.69-7.91,
    7.25-10.85,
    16.74-8.83q21.33,
    4.55,
    38.33,
    46.56t10.47,
    72.8q-13.63,
    64-81.55,
    104T467.06,
    342.84q-49.72-10.6-274.17-177.28Q145.84,
    130.75,
    115,
    124.17q-33.09-7-78.4,
    77.38C28.2,
    217.89,
    19.25,
    225.1,
    9.76,
    223.08,
    1.91,
    221.4-1.24,
    216.55.44,
    208.7Z"
    />
</svg>