<?xml version="1.0" encoding="utf-8"?>
<!-- Generator: Adobe Adobe Illustrator 24.2.0, SVG Export Plug-In . SVG Version: 6.00 Build 0)  -->
<svg version="1.1" id="Layer_1" xmlns="http://www.w3.org/2000/svg" xmlns:xlink="http://www.w3.org/1999/xlink" x="0px" y="0px"
	 width="1224px" height="792px" viewBox="0 0 1224 792" style="enable-background:new 0 0 1224 792;" xml:space="preserve">
<style type="text/css">
	.st0{fill:#FFFFFF;}
</style>
<g>
	<g>
		<g>
			<path d="M940.25,580.09c-9.79,43.63-40.64,84.91-64.84,121.54c-32.64,49.41-83.74,78.87-143.42,66.57
				c-24.89-5.13-48.94-14.79-70.46-28.3c-67.04-42.06-130.98-90.23-195.59-136.09c-25.56-17.52-53.33-35.38-83.65-42.36
				c-26.1-6.01-50.13,4.47-55.64,31.53c-3.6,17.66,5.21,32.6,15.42,46.29c7.89,10.59,19.66,24.05,17.34,37.69
				c-1.19,6.97-6.88,10-15.7,8.09c-19.09-4.13-29.55-27.15-35.95-42.67c-8.27-20.05-14.89-44.25-9.82-66.73
				c9.46-41.91,40.07-75.03,76.5-95.29c40.14-22.32,83.45-32.22,128.15-23.21c30.6,6.17,60.98,28.65,87.62,45.48
				c58.06,36.66,113.96,76.75,169.54,117.01c22.23,15.59,46.1,32.21,73.04,37.93c33.6,7.13,61.16-49.06,73.55-70.92
				c5.57-8.94,12.67-22.09,25.19-19.73C938.76,568.27,941.85,572.94,940.25,580.09z"/>
		</g>
		<g>
			<path class="st0" d="M933.46,579.45c-9.69,43.2-40.24,84.06-64.19,120.32c-32.31,48.92-82.9,78.08-141.99,65.9
				c-24.64-5.08-48.45-14.65-69.76-28.02c-66.37-41.64-129.67-89.32-193.64-134.73c-25.31-17.34-52.8-35.03-82.81-41.94
				c-25.84-5.95-49.63,4.43-55.09,31.22c-3.56,17.48,5.16,32.27,15.26,45.83c7.82,10.48,19.47,23.81,17.17,37.31
				c-1.18,6.9-6.82,9.9-15.55,8.01c-18.45-4-29.52-26.7-35.6-42.25c-7.97-20.39-14.75-43.81-9.72-66.06
				c9.36-41.49,39.67-74.28,75.73-94.33c39.74-22.09,82.64-31.91,126.87-22.98c30.31,6.12,60.37,28.37,86.78,45.05
				c57.47,36.29,112.79,75.96,167.82,115.82c22,15.44,45.63,31.89,72.31,37.55c33.26,7.06,60.55-48.57,72.81-70.21
				c5.51-8.86,12.54-21.87,24.94-19.53C931.98,567.75,935.04,572.37,933.46,579.45z"/>
		</g>
		<g>
			<path d="M926.66,526.72c-9.59,42.76-39.83,83.21-63.54,119.11c-31.98,48.42-82.06,77.29-140.56,65.24
				c-24.39-5.03-47.96-14.5-69.06-27.73c-65.69-41.22-128.36-88.42-191.68-133.37c-25.05-17.17-52.27-34.67-81.98-41.51
				c-25.58-5.89-49.13,4.38-54.53,30.9c-3.53,17.3,5.1,31.95,15.11,45.36c7.74,10.38,19.27,23.57,16.99,36.93
				c-1.16,6.83-6.75,9.8-15.39,7.92c-18.27-3.96-29.22-26.43-35.24-41.82c-7.89-20.19-14.6-43.36-9.62-65.4
				c9.27-41.07,39.27-73.53,74.97-93.38c39.34-21.87,81.8-31.59,125.59-22.75c30,6.06,59.76,28.09,85.9,44.59
				c56.88,35.92,111.66,75.2,166.12,114.65c21.78,15.28,45.17,31.57,71.58,37.17c32.93,6.99,59.94-48.08,72.07-69.51
				c4.35-9.11,13.17-21.51,24.69-19.34C925.2,515.14,928.24,519.71,926.66,526.72z"/>
		</g>
		<g>
			<path class="st0" d="M919.87,477.8c-9.49,42.32-39.13,83.2-62.89,117.89c-32.17,46.96-80.99,77.44-139.12,64.57
				c-24.28-5.38-47.12-14.55-68.35-27.45c-64.65-39.27-127.05-87.52-189.73-132.01c-24.8-16.99-51.73-34.32-81.14-41.09
				c-25.32-5.83-48.63,4.34-53.97,30.59c-3.49,17.13,5.05,31.62,14.95,44.9c7.66,10.27,19.07,23.33,16.82,36.56
				c-1.15,6.76-6.68,9.7-15.23,7.84c-18.08-3.92-28.92-26.16-34.88-41.39c-7.81-19.98-14.28-43.03-9.53-64.73
				c8.98-41.02,39.63-72.59,74.2-92.43c38.11-21.87,80.97-31.27,124.31-22.52c29.7,6,59.15,27.8,85.03,44.14
				c56.3,35.56,110.52,74.43,164.43,113.48c21.56,15.12,44.71,31.25,70.85,36.79c32.59,6.92,59.32-47.59,71.34-68.8
				c4.31-9.02,13.04-21.29,24.43-19.14C918.42,466.34,921.43,470.86,919.87,477.8z"/>
		</g>
		<g>
			<path d="M913.08,432.05c-9.28,41.92-38.8,82.44-62.25,116.68c-31.83,46.48-80.15,76.64-137.69,63.91
				c-24.03-5.32-46.63-14.4-67.65-27.17c-63.98-38.86-125.74-86.62-187.77-130.65c-24.54-16.81-51.2-33.96-80.31-40.67
				c-25.06-5.77-48.12,4.29-53.42,30.27c-3.45,16.95,5,31.3,14.8,44.44c7.58,10.17,18.88,23.09,16.65,36.18
				c-1.14,6.69-6.65,9.62-15.08,7.76c-18.36-4.05-28.24-25.87-34.52-40.97c-7.97-19.17-14.13-42.59-9.43-64.06
				c8.89-40.6,39.22-71.84,73.44-91.48c37.71-21.64,80.11-30.93,123.03-22.28c29.4,5.92,58.52,27.5,84.12,43.66
				c55.74,35.19,109.4,73.68,162.76,112.33c21.34,14.97,44.25,30.92,70.12,36.42c32.26,6.85,58.71-47.1,70.6-68.09
				c4.26-8.93,12.9-21.07,24.18-18.94C911.65,420.71,914.61,425.17,913.08,432.05z"/>
		</g>
		<g>
			<path class="st0" d="M906.29,389.49c-9.19,41.48-38.7,80.75-61.6,115.46c-30.89,46.82-80.69,75.54-136.25,63.24
				c-23.78-5.26-46.15-14.25-66.94-26.89c-63.32-38.46-124.43-85.72-185.81-129.29c-24.28-16.64-50.67-33.61-79.47-40.24
				c-24.8-5.71-47.62,4.25-52.86,29.95c-3.42,16.77,4.95,30.97,14.64,43.97c7.5,10.06,18.68,22.85,16.47,35.8
				c-1.13,6.62-6.58,9.52-14.92,7.68c-18.17-4-27.94-25.6-34.16-40.54c-7.89-18.97-13.98-42.14-9.33-63.39
				c8.8-40.18,38.81-71.09,72.67-90.52c37.32-21.42,79.27-30.61,121.74-22.05c29.09,5.86,57.91,27.21,83.24,43.2
				c55.16,34.82,108.26,72.91,161.06,111.16c21.11,14.81,43.79,30.6,69.39,36.04c31.92,6.78,58.1-46.61,69.87-67.38
				c4.22-8.83,12.77-20.85,23.93-18.74C904.87,378.27,907.8,382.67,906.29,389.49z"/>
		</g>
		<g>
			<path d="M899.5,350.1c-9.09,41.04-38.29,79.9-60.95,114.25c-30.57,46.33-79.84,74.75-134.82,62.58
				c-23.53-5.21-45.66-14.1-66.24-26.6c-62.64-38.06-123.11-84.81-183.86-127.93c-24.03-16.46-50.13-33.26-78.63-39.82
				c-24.54-5.65-47.12,4.2-52.3,29.64c-3.38,16.6,4.84,31.05,14.49,43.51c7.35,9.5,18.44,22.86,16.3,35.43
				c-1.12,6.55-6.51,9.42-14.76,7.6c-17.98-3.96-27.65-25.33-33.8-40.11c-7.81-18.77-13.84-41.7-9.23-62.73
				c8.7-39.75,38.42-70.41,71.91-89.57c36.96-21.15,78.45-30.23,120.46-21.82c28.74,5.75,57.31,26.94,82.4,42.78
				c54.56,34.45,107.09,72.13,159.34,109.97c20.89,14.66,43.71,30.85,68.66,35.66c31.56,6.08,56.84-45.04,69.13-66.67
				c4.18-8.74,12.64-20.63,23.68-18.55C898.09,339,900.99,343.36,899.5,350.1z"/>
		</g>
		<g>
			<path class="st0" d="M892.7,313.89c-9.13,40.57-37.77,78.88-60.3,113.03c-30.24,45.84-78.99,73.95-133.38,61.91
				c-23.28-5.15-45.18-13.95-65.53-26.32c-61.98-37.65-121.81-83.91-181.9-126.57c-23.77-16.29-49.6-32.9-77.8-39.39
				c-24.28-5.59-46.62,4.16-51.75,29.32c-3.11,15.26,4.5,31.51,14.34,43.05c7.79,9.14,18.24,22.62,16.13,35.05
				c-1.1,6.48-6.44,9.32-14.6,7.52c-17.79-3.92-27.36-25.06-33.44-39.69c-7.72-18.57-13.69-41.26-9.13-62.06
				c8.45-38.58,37.63-70.05,71.14-88.62c37.38-20.71,77.61-29.9,119.18-21.59c28.44,5.69,56.7,26.65,81.52,42.32
				c53.98,34.09,105.95,71.36,157.64,108.8c20.67,14.5,43.25,30.52,67.93,35.28c31.22,6.02,56.24-44.56,68.4-65.96
				c4.13-8.65,12.5-20.41,23.43-18.35C891.32,302.91,894.2,307.25,892.7,313.89z"/>
		</g>
		<g>
			<path d="M885.91,280.86c-9.03,40.14-37.36,78.04-59.65,111.82c-29.92,45.34-78.14,73.16-131.95,61.24
				c-23.03-5.1-44.69-13.8-64.83-26.04c-61.31-37.25-120.5-83.01-179.95-125.2c-23.63-16.19-48.9-32.39-76.96-38.97
				c-24.09-5.64-46.12,4.12-51.19,29.01c-3.08,15.09,4.46,31.18,14.18,42.59c7.71,9.04,18.05,22.37,15.95,34.67
				c-1.09,6.41-6.37,9.22-14.45,7.44c-17.6-3.88-27.06-24.79-33.08-39.26c-7.64-18.38-13.54-40.81-9.04-61.39
				c8.36-38.17,37.22-69.3,70.38-87.66c36.97-20.48,76.78-29.58,117.9-21.35c28.13,5.63,56.09,26.36,80.65,41.87
				c53.4,33.72,104.82,70.59,155.95,107.63c20.45,14.34,42.78,30.19,67.2,34.9c30.89,5.95,55.63-44.08,67.66-65.25
				c4.09-8.56,12.37-20.19,23.17-18.15C884.54,269.99,887.39,274.29,885.91,280.86z"/>
		</g>
		<g>
			<path class="st0" d="M879.12,251.01c-8.93,39.7-36.66,78.03-59,110.6c-30.13,43.92-75.71,72.89-130.52,60.58
				c-22.84-5.13-44.21-13.65-64.12-25.75c-60.63-36.85-119.18-82.1-177.99-123.84c-23.37-16.01-48.37-32.04-76.12-38.55
				c-23.83-5.58-45.62,4.07-50.63,28.69c-3.04,14.93,4.41,30.84,14.03,42.12c7.62,8.94,17.85,22.13,15.78,34.29
				c-1.08,6.34-6.3,9.12-14.29,7.36c-17.41-3.83-26.77-24.52-32.72-38.83c-7.56-18.18-13.39-40.37-8.94-60.73
				c8.27-37.75,36.82-68.54,69.61-86.71c36.57-20.26,76.01-29.3,116.62-21.12c27.75,5.59,55.46,26.06,79.74,41.39
				c52.84,33.35,103.69,69.85,154.28,106.48c20.23,14.19,42.32,29.87,66.47,34.52c30.55,5.89,55.03-43.6,66.93-64.54
				c4.04-8.46,12.23-19.97,22.92-17.95C877.76,240.26,880.58,244.51,879.12,251.01z"/>
		</g>
		<g>
			<path d="M872.33,224.33c-8.84,39.27-36.26,77.17-58.36,109.39c-29.8,43.44-74.88,72.09-129.08,59.91
				c-22.59-5.08-43.73-13.5-63.42-25.47c-59.97-36.44-117.87-81.2-176.03-122.48c-23.03-15.72-48-31.89-75.29-38.12
				c-23.46-5.37-45.12,4.03-50.08,28.38c-3.01,14.77,4.36,30.5,13.87,41.66c7.54,8.84,17.65,21.89,15.61,33.92
				c-1.07,6.27-6.23,9.02-14.13,7.28c-17.21-3.79-26.47-24.25-32.36-38.41c-7.47-17.98-13.25-39.93-8.84-60.06
				c8.18-37.34,36.41-67.79,68.85-85.76c36.17-20.04,75.17-28.98,115.34-20.89c27.45,5.53,54.85,25.77,78.86,40.93
				c52.26,32.99,102.55,69.08,152.59,105.31c20,14.03,41.85,29.54,65.74,34.14c30.22,5.82,54.42-43.12,66.19-63.83
				c4-8.37,12.1-19.75,22.67-17.76C870.98,213.7,873.77,217.91,872.33,224.33z"/>
		</g>
		<g>
			<path class="st0" d="M865.54,200.84c-8.66,39.02-35.98,75.52-57.71,108.17c-29.11,43.75-75.09,71.06-127.65,59.25
				c-22.34-5.02-43.24-13.35-62.71-25.19c-59.3-36.04-116.56-80.3-174.08-121.12c-22.77-15.55-47.2-31.7-74.45-37.7
				c-23.22-5.11-44.73,3.22-49.52,28.06c-2.85,14.79,4.31,30.16,13.72,41.2c7.52,8.82,17.4,21.65,15.43,33.54
				c-1.02,6.18-6.16,8.92-13.98,7.2c-17.02-3.75-26.18-23.98-32-37.98c-7.39-17.78-13.08-39.49-8.74-59.39
				c8.22-37.67,36.45-66.66,68.08-84.81c34.93-20.04,74.34-28.66,114.05-20.66c27.14,5.47,54.24,25.49,77.99,40.48
				c51.68,32.62,101.42,68.31,150.89,104.14c19.78,13.81,41.43,29.19,65.01,33.76c29.84,5.78,53.82-42.64,65.46-63.12
				c3.95-8.28,11.96-19.53,22.42-17.56C864.21,190.33,866.95,194.46,865.54,200.84z"/>
		</g>
		<g>
			<path d="M858.74,180.52c-8.56,38.58-35.58,74.67-57.06,106.96c-28.78,43.26-74.24,70.26-126.21,58.58
				c-22.09-4.96-42.75-13.2-62.01-24.9c-58.64-35.63-115.25-79.39-172.12-119.76c-22.52-15.37-46.67-31.35-73.61-37.28
				c-22.96-5.05-43.99,3.14-48.96,27.75c-3.22,15.9,4.78,28.64,13.57,40.73c6.77,9.33,17.39,21.02,15.26,33.16
				c-1.08,6.16-6.09,8.82-13.82,7.12c-16.83-3.71-25.89-23.71-31.64-37.55c-7.31-17.58-12.94-39.05-8.64-58.72
				c8.13-37.25,36.04-65.91,67.32-83.85c34.54-19.81,73.53-28.35,112.77-20.43c26.86,5.43,53.66,25.22,77.14,40.05
				c51.08,32.25,100.25,67.53,149.16,102.94c19.55,13.66,40.97,28.87,64.28,33.38c29.51,5.72,53.21-42.16,64.72-62.41
				c3.91-8.18,11.83-19.31,22.17-17.36C857.43,170.13,860.14,174.21,858.74,180.52z"/>
		</g>
		<g>
			<path class="st0" d="M851.95,163.38c-8.47,38.14-35.18,73.83-56.41,105.74c-28.46,42.77-72.6,68.84-124.78,57.92
				c-21.5-4.5-42.75-12.86-61.3-24.62c-58.08-36.83-113.95-78.5-170.17-118.4c-22.26-15.2-46.14-30.99-72.78-36.85
				c-22.69-4.99-43.49,3.11-48.41,27.43c-3.18,15.72,4.73,28.31,13.41,40.27c6.69,9.22,17.19,20.78,15.09,32.79
				c-1.07,6.09-6.02,8.72-13.66,7.04c-16.64-3.67-25.59-23.44-31.28-37.13c-7.23-17.38-12.79-38.6-8.54-58.06
				c8.04-36.82,35.63-65.16,66.55-82.9c34.15-19.59,72.69-28.03,111.49-20.19c26.56,5.36,53.05,24.93,76.27,39.6
				c50.5,31.89,99.11,66.76,147.47,101.77c19.33,13.5,40.5,28.54,63.55,33c29.17,5.65,52.61-41.68,63.98-61.7
				c3.86-8.09,11.69-19.09,21.91-17.17C850.65,153.1,853.34,157.15,851.95,163.38z"/>
		</g>
		<g>
			<path d="M845.16,149.42c-8.51,37.65-34.52,73.6-55.76,104.52c-28.57,41.6-70.49,68.32-123.34,57.25
				c-21.25-4.45-42.26-12.71-60.6-24.34c-57.41-36.4-112.64-77.59-168.21-117.04c-22.01-15.03-45.61-30.63-71.94-36.43
				c-22.43-4.94-42.99,3.07-47.85,27.12c-3.14,15.54,4.67,27.99,13.26,39.81c6.62,9.11,17,20.54,14.91,32.41
				c-1.06,6.02-5.95,8.62-13.5,6.95c-16.45-3.62-25.3-23.17-30.92-36.7c-7.14-17.18-12.64-38.16-8.45-57.39
				c7.95-36.4,35.22-64.41,65.79-81.95c33.75-19.36,71.8-27.67,110.21-19.96c26.28,5.28,52.4,24.63,75.36,39.11
				c49.94,31.51,98,66.01,145.8,100.63c19.11,13.35,40.11,28.31,62.82,32.62c28.69,5.44,52.07-41.39,63.25-60.99
				c3.82-8,11.56-18.87,21.66-16.97C843.88,139.26,846.55,143.29,845.16,149.42z"/>
		</g>
		<g>
			<path class="st0" d="M838.37,138.64c-8.41,37.21-34.12,72.75-55.11,103.31c-28.24,41.11-69.67,67.53-121.91,56.58
				c-21.01-4.4-41.77-12.56-59.9-24.06c-56.74-35.98-111.33-76.69-166.26-115.68c-21.75-14.85-45.08-30.28-71.1-36.01
				c-22.17-4.88-42.49,3.03-47.3,26.8c-3.11,15.36,4.62,27.66,13.1,39.35c6.54,9.01,16.8,20.3,14.74,32.03
				c-1.05,5.95-5.88,8.52-13.35,6.87c-15.63-3.44-25.37-22.64-30.56-36.27c-6.75-17.72-12.5-37.72-8.35-56.72
				c7.69-35.21,34.44-64.06,65.02-80.99c32.92-18.23,70.94-28.37,108.93-19.73c26.51,6.03,51.8,24.34,74.48,38.66
				c49.36,31.14,96.86,65.25,144.11,99.46c18.89,13.19,39.64,27.98,62.08,32.24c28.36,5.38,51.47-40.91,62.51-60.29
				c3.78-7.9,11.43-18.65,21.41-16.77C837.1,128.6,839.74,132.57,838.37,138.64z"/>
		</g>
		<g>
			<path d="M831.58,131.03c-8.31,36.78-33.86,71.12-54.46,102.09c-27.55,41.42-69.96,66.5-120.48,55.92
				c-20.76-4.35-41.28-12.41-59.19-23.77c-56.08-35.57-110.02-75.79-164.3-114.32c-21.49-14.68-44.55-29.92-70.27-35.58
				c-21.91-4.82-41.99,3-46.74,26.49c-3.07,15.18,4.57,27.34,12.95,38.88c6.46,8.9,16.6,20.06,14.57,31.66
				c-1.03,5.88-5.82,8.42-13.19,6.79c-15.44-3.4-25.14-22.4-30.2-35.84c-6.81-18.08-12.1-36.54-8.25-56.05
				c6.95-35.27,34.06-63.38,64.26-80.04c33.78-18.63,70.24-26.92,107.65-19.5c25.63,5.09,51.19,24.06,73.6,38.2
				c48.78,30.78,95.72,64.48,142.41,98.29c18.67,13.04,39.18,27.66,61.35,31.86c28.02,5.32,50.86-40.42,61.78-59.58
				c3.73-7.81,11.29-18.44,21.16-16.57C830.32,121.11,832.93,125.04,831.58,131.03z"/>
		</g>
		<g>
			<path class="st0" d="M824.78,126.61c-8.21,36.34-33.46,70.27-53.82,100.88c-27.22,40.92-69.13,65.71-119.04,55.25
				c-20.51-4.3-40.79-12.26-58.49-23.49c-55.41-35.15-108.71-74.89-162.34-112.96c-21.24-14.5-44.02-29.56-69.43-35.16
				c-21.65-4.77-41.49,2.96-46.18,26.17c-3.03,15,4.51,27.01,12.79,38.42c6.39,8.8,16.4,19.82,14.39,31.28
				c-1.02,5.81-5.75,8.32-13.03,6.71c-15.26-3.36-24.84-22.14-29.84-35.42c-6.73-17.86-11.95-36.1-8.15-55.39
				c6.87-34.85,33.65-62.63,63.49-79.09c33.38-18.41,69.43-26.62,106.37-19.27c25.33,5.04,50.59,23.78,72.76,37.78
				c48.18,30.42,94.55,63.69,140.68,97.09c18.44,12.88,38.71,27.33,60.62,31.48c27.69,5.25,50.26-39.94,61.04-58.87
				c3.69-7.72,11.16-18.22,20.91-16.38C823.54,116.8,826.12,120.69,824.78,126.61z"/>
		</g>
		<g>
			<path d="M817.99,125.36c-7.99,35.88-33.19,69.62-53.17,99.66c-26.88,40.43-68.29,64.92-117.61,54.59
				c-20.26-4.24-40.29-12.11-57.78-23.21c-54.74-34.72-107.4-73.99-160.39-111.59c-20.98-14.33-43.49-29.21-68.59-34.73
				c-21.39-4.71-40.99,2.93-45.63,25.86c-3,14.82,4.46,26.68,12.64,37.96c6.31,8.69,16.21,19.58,14.22,30.9
				c-1.01,5.74-5.68,8.22-12.88,6.63c-15.07-3.32-24.54-21.87-29.48-34.99c-6.65-17.64-11.81-35.67-8.05-54.72
				c6.79-34.43,33.25-61.88,62.73-78.14c32.98-18.19,68.6-26.3,105.08-19.03c25.03,4.98,49.98,23.49,71.89,37.32
				c47.6,30.05,93.41,62.92,138.99,95.92c18.22,12.73,38.24,27,59.89,31.1c27.36,5.19,49.65-39.46,60.31-58.16
				c3.64-7.63,11.02-18,20.66-16.18C816.77,115.67,819.3,119.49,817.99,125.36z"/>
		</g>
		<g>
			<path class="st0" d="M811.2,127.29c-7.89,35.45-32.79,68.77-52.52,98.45c-26.55,39.93-68.37,64.82-116.17,53.92
				c-20.31-4.63-39.26-12.18-57.08-22.92C531.5,224.2,479.34,183.65,427,146.5c-20.73-14.15-42.96-28.85-67.76-34.31
				c-21.13-4.65-40.49,2.89-45.07,25.54c-2.96,14.64,4.4,26.36,12.49,37.49c6.23,8.58,16.01,19.34,14.04,30.53
				c-1,5.67-5.61,8.12-12.72,6.55c-14.89-3.28-24.24-21.6-29.12-34.56c-6.57-17.43-11.85-35.52-7.95-54.05
				c7.27-34.58,32.68-60.39,61.96-77.18c31.73-18.19,67.76-25.98,103.8-18.8c24.72,4.92,49.37,23.2,71.01,36.87
				c47.02,29.68,92.27,62.15,137.29,94.75c18,12.57,37.78,26.67,59.16,30.73c27.02,5.13,49.05-38.98,59.57-57.45
				c6.4-12.13,13.19-17.48,20.4-15.98C810.08,117.86,812.49,121.49,811.2,127.29z"/>
		</g>
		<g>
			<path d="M804.41,132.4c-7.79,35.01-32.24,68.7-51.87,97.23c-26.55,38.59-66.54,64.25-114.74,53.26
				c-20.06-4.58-38.81-12.02-56.37-22.64c-53.19-32.16-104.77-72.17-156.48-108.87c-20.47-13.98-42.42-28.5-66.92-33.89
				c-20.87-4.59-39.99,2.86-44.51,25.22c-2.92,14.46,4.35,26.03,12.33,37.03c6.15,8.48,15.81,19.11,13.87,30.15
				c-0.98,5.6-5.75,8.15-12.56,6.47c-15.13-3.73-23.33-21.08-28.76-34.14c-6.83-16.4-11.7-35.08-7.86-53.38
				c7.18-34.15,32.27-59.65,61.2-76.23c31.34-17.97,66.95-25.68,102.52-18.57c24.28,4.85,48.82,22.96,70.1,36.38
				c46.46,29.31,91.16,61.41,135.63,93.61c17.78,12.41,37.31,26.34,58.43,30.35c26.69,5.06,48.44-38.5,58.84-56.74
				c6.32-11.98,13.03-17.27,20.15-15.78C803.3,123.08,805.68,126.67,804.41,132.4z"/>
		</g>
		<g>
			<path class="st0" d="M797.62,140.69c-7.69,34.57-31.83,67.84-51.22,96.02c-26.22,38.11-65.71,63.45-113.3,52.59
				c-19.81-4.52-38.32-11.87-55.67-22.36c-52.52-31.76-103.46-71.27-154.52-107.51c-20.22-13.74-41.89-28.11-66.08-33.46
				c-20.62-4.56-39.49,2.82-43.96,24.91c-2.89,14.28,4.29,25.71,12.18,36.57c6.08,8.37,15.61,18.87,13.7,29.77
				c-0.97,5.53-5.68,8.04-12.41,6.39c-14.94-3.68-23.04-20.81-28.4-33.71c-6.74-16.2-11.56-34.64-7.76-52.72
				c7.09-33.73,31.87-58.9,60.43-75.28c30.95-17.74,66.12-25.36,101.24-18.34c23.98,4.79,48.21,22.67,69.22,35.93
				c45.88,28.94,90.02,60.64,133.94,92.44c17.55,12.26,36.84,26.01,57.7,29.97c26.35,5,47.83-38.02,58.1-56.03
				c6.24-11.83,12.87-17.05,19.9-15.59C796.52,131.49,798.87,135.03,797.62,140.69z"/>
		</g>
		<g>
			<path d="M790.82,152.15c-7.61,34.13-31.57,66.2-50.57,94.8c-25.53,38.42-65.94,62.4-111.87,51.92
				c-19.56-4.46-37.84-11.72-54.96-22.07c-51.86-31.36-102.15-70.37-152.56-106.15c-19.96-13.57-41.43-27.71-65.25-33.04
				c-20.33-4.55-39.04,2.76-43.4,24.59c-2.81,14.07,4.24,25.38,12.02,36.11c6,8.27,15.42,18.63,13.52,29.4
				c-0.96,5.46-5.61,7.94-12.25,6.31c-14.75-3.63-22.75-20.55-28.04-33.28c-6.66-15.99-11.41-34.2-7.66-52.05
				c7-33.3,31.47-58.16,59.67-74.32c30.56-17.52,65.28-25.03,99.96-18.11c23.67,4.73,47.6,22.38,68.35,35.47
				c45.3,28.57,88.88,59.88,132.24,91.27c17.33,12.1,36.24,25.48,56.97,29.59c26.17,5.18,47.26-37.66,57.37-55.32
				c6.16-11.68,12.7-16.84,19.65-15.39C789.75,143.07,792.07,146.57,790.82,152.15z"/>
		</g>
		<g>
			<path class="st0" d="M784.03,166.8c-7.51,33.69-31.16,65.35-49.93,93.59c-25.21,37.93-65.1,61.6-110.44,51.26
				c-19.31-4.4-37.35-11.57-54.26-21.79c-51.18-30.96-100.83-69.47-150.61-104.79c-19.7-13.39-40.9-27.36-64.41-32.62
				c-20.07-4.49-38.54,2.73-42.84,24.28c-2.77,13.89,4.11,25.68,11.87,35.64c5.8,7.44,15.14,18.84,13.35,29.02
				c-0.95,5.39-5.54,7.84-12.09,6.23c-14.56-3.59-22.45-20.29-27.69-32.86c-6.57-15.79-11.27-33.76-7.56-51.38
				c6.7-31.86,30.54-57.94,58.9-73.37c30.01-16.33,64.38-25.77,98.68-17.87c24.01,5.53,46.96,22.08,67.51,35.05
				c44.69,28.21,87.71,59.09,130.51,90.07c17.11,11.95,35.78,25.16,56.24,29.21c25.83,5.11,46.65-37.18,56.63-54.61
				c6.08-11.53,12.54-16.62,19.4-15.19C782.97,157.83,785.26,161.28,784.03,166.8z"/>
		</g>
		<g>
			<path d="M777.24,184.62c-7.41,33.26-30.76,64.5-49.28,92.37c-24.88,37.44-64.25,60.8-109,50.59
				c-19.05-4.35-36.87-11.42-53.55-21.51c-50.52-30.56-99.52-68.56-148.65-103.43c-19.45-13.22-40.37-27-63.57-32.19
				c-19.81-4.43-38.04,2.69-42.29,23.96c-2.74,13.71,4.05,25.35,11.72,35.18c5.73,7.35,14.94,18.6,13.18,28.64
				c-0.93,5.32-5.46,7.74-11.93,6.15c-14.37-3.54-22.16-20.02-27.33-32.43c-6.49-15.58-11.12-33.33-7.46-50.72
				c6.61-31.45,30.14-57.18,58.14-72.42c29.62-16.12,63.55-25.43,97.39-17.64c23.7,5.46,46.35,21.79,66.63,34.6
				c44.11,27.85,86.57,58.32,128.81,88.9c17.01,11.81,35.28,24.79,55.51,28.83c25.45,5.08,46.05-36.69,55.89-53.9
				c6-11.38,12.38-16.4,19.14-15C776.19,175.77,778.45,179.18,777.24,184.62z"/>
		</g>
		<g>
			<path class="st0" d="M770.45,205.62c-7.33,32.82-30.37,63.66-48.63,91.16c-24.53,36.94-63.4,60-107.57,49.93
				c-18.8-4.29-36.38-11.27-52.85-21.23c-49.85-30.16-98.21-67.66-146.7-102.07c-19.19-13.05-39.84-26.65-62.74-31.77
				c-19.55-4.37-37.54,2.66-41.73,23.65c-2.53,12.67,3.43,25.26,11.56,34.72c6.29,7.32,14.75,18.35,13,28.26
				c-0.92,5.25-5.39,7.64-11.78,6.06c-14.18-3.49-21.87-19.76-26.97-32c-6.4-15.38-10.97-32.89-7.37-50.05
				c6.52-31.04,29.77-56.52,57.37-71.47c30.67-16.6,62.56-24.07,96.11-17.41c22.8,4.53,45.63,21.44,65.72,34.11
				c43.56,27.47,85.46,57.58,127.16,87.76c16.78,11.65,34.82,24.47,54.78,28.45c25.12,5.01,45.44-36.21,55.16-53.19
				c5.92-11.23,12.21-16.19,18.89-14.8C769.41,196.89,771.65,200.25,770.45,205.62z"/>
		</g>
		<g>
			<path d="M763.66,229.8c-7.23,32.38-29.82,63.59-47.98,89.94c-24.47,35.5-61.55,59.44-106.13,49.26
				c-18.56-4.24-35.9-11.12-52.14-20.94c-49.19-29.76-96.9-66.76-144.74-100.71c-18.94-12.87-39.31-26.29-61.9-31.35
				c-19.29-4.31-37.04,2.62-41.18,23.33c-2.5,12.5,3.39,24.92,11.41,34.25c6.2,7.22,14.55,18.11,12.83,27.89
				c-0.91,5.18-5.32,7.54-11.62,5.98c-13.99-3.45-21.58-19.5-26.61-31.58c-6.31-15.17-10.83-32.45-7.27-49.38
				c6.44-30.62,29.38-55.77,56.61-70.51c30.26-16.38,61.73-23.75,94.83-17.18c22.5,4.47,45.02,21.15,64.84,33.65
				c42.98,27.1,84.32,56.81,125.46,86.59c16.56,11.49,34.35,24.14,54.05,28.07c24.78,4.95,44.83-35.73,54.42-52.48
				c5.84-11.08,12.05-15.97,18.64-14.6C762.63,221.18,764.84,224.5,763.66,229.8z"/>
		</g>
		<g>
			<path class="st0" d="M756.86,257.16c-7.13,31.94-29.56,61.95-47.33,88.72c-23.79,35.83-61.8,58.39-104.7,48.6
				c-18.1-4.13-35.45-10.7-51.44-20.66c-48.81-30.4-95.6-65.86-142.78-99.35c-18.68-12.7-38.78-25.94-61.07-30.92
				c-19.03-4.26-36.54,2.59-40.62,23.02c-2.46,12.33,3.34,24.59,11.25,33.79c6.12,7.12,14.35,17.86,12.66,27.51
				c-0.9,5.11-5.25,7.43-11.46,5.9c-13.8-3.4-21.29-19.23-26.25-31.15c-6.23-14.97-10.68-32.01-7.17-48.71
				c6.35-30.21,28.98-55.02,55.84-69.56c29.85-16.16,60.9-23.43,93.55-16.94c22.2,4.41,44.41,20.87,63.97,33.2
				c42.39,26.74,83.18,56.04,123.76,85.42c16.34,11.34,33.89,23.81,53.32,27.69c24.45,4.88,44.23-35.25,53.69-51.77
				c5.77-10.93,11.89-15.76,18.39-14.4C755.86,248.66,758.03,251.93,756.86,257.16z"/>
		</g>
		<g>
			<path d="M750.07,287.69c-7.03,31.5-29.15,61.1-46.68,87.51c-23.46,35.34-60.39,56.66-103.26,47.93
				c-17.77-3.62-35.38-10.81-50.73-20.38c-48.14-29.98-94.29-64.96-140.83-97.99c-18.42-12.52-38.24-25.58-60.23-30.5
				c-18.76-4.2-36.04,2.55-40.06,22.7c-2.43,12.16,3.3,24.25,11.1,33.33c6.04,7.02,14.16,17.62,12.48,27.13
				c-0.89,5.04-5.18,7.33-11.31,5.82c-13.28-3.27-21.22-18.79-25.89-30.72c-5.95-15.23-10.52-31.55-7.07-48.05
				c6.43-30.78,29.25-53.81,55.08-68.61c28.35-16.23,60.09-23.13,92.27-16.71c21.86,4.36,43.9,20.64,63.13,32.78
				c41.79,26.38,82.01,55.25,122.03,84.21c16.11,11.18,33.42,23.49,52.59,27.31c24.11,4.81,43.62-34.76,52.95-51.07
				c5.69-10.78,11.73-15.54,18.14-14.21C749.08,279.31,751.22,282.54,750.07,287.69z"/>
		</g>
		<g>
			<path class="st0" d="M743.28,321.41c-6.95,31.06-28.73,60.23-46.04,86.29c-23.14,34.85-59.55,55.88-101.83,47.26
				c-17.52-3.57-34.89-10.66-50.03-20.09c-47.47-29.57-92.98-64.06-138.87-96.62c-18.17-12.35-37.71-25.23-59.39-30.08
				c-18.5-4.14-35.54,2.52-39.51,22.39c-2.39,11.99,3.25,23.91,10.94,32.86c5.95,6.93,13.96,17.37,12.31,26.76
				c-0.87,4.97-5.11,7.23-11.15,5.74c-13.1-3.23-20.93-18.53-25.53-30.3c-5.87-15.02-10.37-31.11-6.97-47.38
				c6.34-30.36,28.84-53.06,54.31-67.65c27.95-16.01,59.26-22.81,90.99-16.48c21.55,4.3,43.29,20.36,62.25,32.32
				c41.21,26.01,80.87,54.48,120.33,83.05c15.89,11.03,32.96,23.16,51.86,26.93c23.78,4.74,43.02-34.28,52.22-50.36
				c5.61-10.63,11.56-15.33,17.88-14.01C742.3,313.14,744.42,316.33,743.28,321.41z"/>
		</g>
		<g>
			<path d="M736.49,358.3c-6.86,30.62-28.33,59.38-45.39,85.08c-22.81,34.36-58.71,55.09-100.4,46.6
				c-17.27-3.52-34.4-10.51-49.33-19.81c-46.79-29.15-91.67-63.15-136.92-95.26c-17.91-12.18-37.18-24.87-58.56-29.65
				c-18.24-4.08-35.04,2.48-38.95,22.07c-2.36,11.82,3.2,23.58,10.79,32.4c5.87,6.83,13.76,17.13,12.14,26.38
				c-0.86,4.9-5.03,7.13-10.99,5.66c-12.91-3.18-20.22-18.31-25.17-29.87c-6.12-14.29-10.07-31.43-6.87-46.71
				c6.04-28.89,27.88-52.84,53.55-66.7c28.66-15.48,58.42-22.49,89.71-16.25c21.25,4.24,42.68,20.07,61.38,31.87
				c40.63,25.65,79.73,53.72,118.64,81.88c15.66,10.87,32.67,23.09,51.13,26.55c23.27,4.36,42.09-33.31,51.48-49.65
				c5.53-10.48,11.4-15.11,17.63-13.81C735.52,350.15,737.61,353.29,736.49,358.3z"/>
		</g>
		<g>
			<path class="st0" d="M729.7,398.37c-6.76,30.19-27.92,58.53-44.74,83.86c-22.48,33.87-57.87,54.3-98.96,45.93
				c-17.03-3.47-33.91-10.36-48.62-19.53c-46.12-28.74-90.36-62.25-134.96-93.9c-17.66-12-36.65-24.51-57.72-29.23
				c-17.98-4.02-34.54,2.44-38.39,21.76c-2.33,11.65,3.16,23.24,10.64,31.94c5.79,6.73,13.57,16.88,11.96,26
				c-0.85,4.83-4.96,7.03-10.84,5.58c-12.73-3.13-19.93-18.05-24.81-29.44c-6.03-14.08-9.92-30.98-6.78-46.04
				c5.95-28.47,27.48-52.08,52.78-65.75c28.26-15.26,57.48-22.09,88.42-16.02c21.02,4.13,42.01,19.73,60.46,31.38
				c40.06,25.29,78.62,52.98,116.98,80.74c15.44,10.72,32.21,22.76,50.4,26.17c22.94,4.3,41.49-32.84,50.75-48.94
				c5.45-10.33,11.24-14.89,17.38-13.61C728.74,390.33,730.8,393.44,729.7,398.37z"/>
		</g>
		<g>
			<path d="M722.9,441.62c-6.81,29.68-27.27,58.31-44.09,82.65c-22.2,32.14-56.5,53.98-97.53,45.27
				c-16.61-3.53-33.42-10.21-47.92-19.24c-45.45-28.32-89.05-61.35-133-92.54c-17.27-11.67-36.34-24.35-56.88-28.8
				c-17.63-3.82-34.04,2.41-37.84,21.44c-2.29,11.48,3.11,22.9,10.48,31.48c6.2,7.22,12.96,16.67,11.79,25.63
				c-0.6,4.57-4.89,6.92-10.68,5.5c-12.55-3.09-19.64-17.79-24.45-29.02c-5.95-13.88-9.78-30.53-6.68-45.38
				c5.86-28.06,27.08-51.33,52.02-64.8c26.92-14.54,56.58-22.55,87.14-15.78c21.13,4.68,41.4,19.45,59.58,30.93
				c39.48,24.92,77.48,52.21,115.29,79.57c15.22,10.56,31.74,22.43,49.67,25.79c22.6,4.24,40.89-32.36,50.01-48.23
				c5.37-10.18,11.07-14.68,17.13-13.42C721.96,433.7,724.01,436.79,722.9,441.62z"/>
		</g>
		<g>
			<path class="st0" d="M716.11,488.05c-6.71,29.24-27.02,56.66-43.44,81.43c-21.53,32.48-56.73,52.96-96.09,44.6
				c-16.37-3.47-32.93-10.06-47.21-18.96c-44.78-27.9-87.74-60.45-131.05-91.18c-17.01-11.5-35.91-23.93-56.05-28.38
				c-16.49-3.64-34.1,3.05-37.28,21.13c-1.95,11.1,3.07,22.57,10.33,31.01c6.11,7.11,12.77,16.42,11.62,25.25
				c-0.59,4.51-4.82,6.82-10.52,5.42c-12.36-3.04-19.83-17.52-24.09-28.59c-5.44-14.14-9.91-29.21-6.58-44.71
				c5.96-27.77,26.69-50.57,51.25-63.84c26.53-14.33,55.99-22.37,85.86-15.55c20.72,4.73,40.76,19.15,58.75,30.51
				c38.89,24.54,76.31,51.41,113.55,78.36c14.99,10.41,31.27,22.1,48.94,25.42c22.27,4.18,40.28-31.88,49.28-47.52
				c5.29-10.03,10.91-14.46,16.88-13.22C715.19,480.24,717.2,483.29,716.11,488.05z"/>
		</g>
		<g>
			<path d="M709.32,537.65c-6.61,28.8-26.62,55.81-42.79,80.22c-21.21,31.99-55.89,52.17-94.66,43.94
				c-16.12-3.42-32.44-9.91-46.51-18.68c-44.12-27.49-86.43-59.54-129.09-89.82c-16.76-11.32-35.37-23.58-55.21-27.96
				c-16.24-3.59-33.35,3.37-36.72,20.81c-2.18,11.28,4.1,21.77,10.17,30.55c5.45,7.86,12.52,15.79,11.44,24.87
				c-0.52,4.39-4.75,6.72-10.36,5.34c-12.18-3-19.54-17.26-23.73-28.16c-5.36-13.93-9.76-28.77-6.48-44.04
				c5.87-27.35,26.29-49.82,50.49-62.89c26.13-14.11,55.16-22.04,84.58-15.32c20.41,4.66,40.15,18.87,57.88,30.05
				c38.31,24.18,75.17,50.65,111.85,77.19c14.77,10.25,30.81,21.77,48.21,25.04c21.94,4.11,39.68-31.41,48.54-46.81
				c5.21-9.88,10.75-14.25,16.63-13.02C708.41,529.96,710.4,532.96,709.32,537.65z"/>
		</g>
		<g>
			<path class="st0" d="M702.53,590.43c-6.51,28.37-26.21,54.97-42.15,79c-20.89,31.51-55.13,52.48-93.23,43.27
				c-16.42-3.97-31.49-9.83-45.8-18.4c-43.14-25.83-85.12-58.64-127.14-88.46c-16.51-11.15-34.83-23.22-54.37-27.53
				c-15.99-3.53-32.84,3.32-36.17,20.5c-2.15,11.11,3.97,21.91,10.02,30.09c7.81,10.55,12.5,18.84,11.27,24.5
				c-1.03,4.71-4.67,6.62-10.21,5.26c-11.99-2.95-19.24-17-23.37-27.74c-5.28-13.72-9.61-28.34-6.38-43.38
				c5.78-26.94,25.92-49.16,49.72-61.94c27.02-14.5,54.02-20.93,83.3-15.09c19.66,3.93,39.54,18.58,57,29.6
				c37.73,23.81,74.03,49.88,110.16,76.02c14.55,10.1,30.34,21.44,47.48,24.66c21.61,4.05,39.08-30.93,47.8-46.1
				c5.13-9.73,10.59-14.03,16.37-12.82C701.63,582.87,703.59,585.82,702.53,590.43z"/>
		</g>
	</g>
</g>
</svg>
